# xmcd CD database file
#
# Track frame offsets:
#	150
#	22345
#	44727
#	66902
#
# Disc length: 1187 seconds
#
# Revision: 0
# Processed by: cddbd v1.5.1PL0 Copyright (c) Steve Scherf et al.
# Submitted via: CDex 1.51
#
DISCID=3b04a104
DTITLE=平原綾香 - 君といる時間の中で
DYEAR=2004
DGENRE=JPop
TTITLE0=君といる時間の中で
TTITLE1=歌う風
TTITLE2=君といる時間の中で〜Vocal-less Track〜
TTITLE3=歌う風〜Vocal-less Track〜
EXTD=YEAR: 2004
EXTT0=
EXTT1=
EXTT2=
EXTT3=
PLAYORDER=
